<svg width="1920" height="1080" viewBox="0 0 1920 1080" fill="none" xmlns="http://www.w3.org/2000/svg">
<g clip-path="url(#clip0_2_64)">
<path d="M-2772.39 -1465.36C-2302.29 -2475.81 -1103.95 -2912.98 -95.8209 -2441.8C912.309 -1970.62 1348.47 -769.52 878.371 240.931C408.272 1251.38 -790.071 1688.55 -1798.2 1217.37C-2806.33 746.185 -3242.49 -454.913 -2772.39 -1465.36Z" stroke="white"/>
<path d="M-2488.71 -1756.37C-1932.53 -2721.91 -700.737 -3052.72 262.586 -2495.27C1225.91 -1937.82 1555.97 -703.187 999.792 262.353C443.617 1227.89 -788.179 1558.71 -1751.5 1001.26C-2714.82 443.802 -3044.88 -790.827 -2488.71 -1756.37Z" stroke="#F8F8F8"/>
<path d="M-2186.14 -2018.7C-1548.12 -2931.98 -292.243 -3153.93 618.939 -2514.44C1530.12 -1874.96 1751.57 -616.196 1113.55 297.084C475.532 1210.36 -780.343 1432.32 -1691.53 792.832C-2602.71 153.348 -2824.15 -1105.42 -2186.14 -2018.7Z" stroke="#F0F0F0"/>
<path d="M-1867.24 -2250.81C-1152.24 -3104.88 118.159 -3216.28 970.267 -2499.63C1822.38 -1782.98 1933.52 -509.664 1218.52 344.406C503.512 1198.47 -766.884 1309.88 -1618.99 593.227C-2471.1 -123.422 -2582.25 -1396.74 -1867.24 -2250.81Z" stroke="#E9E9E9"/>
<path d="M-1534.72 -2451.4C-748.169 -3239.76 527.08 -3239.76 1313.63 -2451.4C2100.18 -1663.04 2100.18 -384.857 1313.63 403.502C527.081 1191.86 -748.168 1191.86 -1534.72 403.503C-2321.27 -384.856 -2321.27 -1663.04 -1534.72 -2451.4Z" stroke="#E1E1E1"/>
<path d="M-1191.35 -2619.39C-339.246 -3336.04 931.151 -3224.64 1646.16 -2370.57C2361.16 -1516.5 2250.01 -243.182 1397.91 473.467C545.797 1190.12 -724.6 1078.72 -1439.6 224.646C-2154.61 -629.423 -2043.46 -1902.74 -1191.35 -2619.39Z" stroke="#DADADA"/>
<path d="M-840.027 -2753.96C71.1553 -3393.45 1327.03 -3171.49 1965.05 -2258.22C2603.07 -1344.94 2381.62 -86.1712 1470.44 553.314C559.255 1192.8 -696.62 970.845 -1334.64 57.565C-1972.66 -855.715 -1751.21 -2114.48 -840.027 -2753.96Z" stroke="#D2D2D2"/>
<path d="M-483.674 -2854.55C479.648 -3412 1711.44 -3081.18 2267.62 -2115.65C2823.79 -1150.11 2493.73 84.5236 1530.41 641.977C567.09 1199.43 -664.706 868.614 -1220.88 -96.9255C-1777.06 -1062.46 -1447 -2297.09 -483.674 -2854.55Z" stroke="#CBCBCB"/>
<path d="M-125.269 -2920.83C882.861 -3392.01 2081.2 -2954.85 2551.3 -1944.4C3021.4 -933.95 2585.24 267.149 1577.11 738.329C568.982 1209.51 -629.361 772.346 -1099.46 -238.105C-1569.56 -1248.56 -1133.4 -2449.65 -125.269 -2920.83Z" stroke="#C3C3C3"/>
<path d="M232.199 -2952.77C1277.46 -3334.09 2433.23 -2793.91 2813.68 -1746.24C3194.13 -698.568 2655.18 459.858 1609.92 841.179C564.65 1222.5 -591.118 682.317 -971.564 -365.355C-1352.01 -1413.03 -813.066 -2571.45 232.199 -2952.77Z" stroke="#BCBCBC"/>
<path d="M585.747 -2950.58C1660.19 -3239.14 2764.59 -2600.05 3052.49 -1523.13C3340.39 -446.211 2702.76 660.727 1628.31 949.286C553.869 1237.85 -550.53 598.755 -838.427 -478.164C-1126.32 -1555.08 -488.699 -2662.02 585.747 -2950.58Z" stroke="#B4B4B4"/>
<path d="M932.419 -2914.73C2027.87 -3108.33 3072.49 -2375.19 3265.65 -1277.22C3458.81 -179.25 2727.35 867.775 1631.9 1061.38C536.455 1254.98 -508.168 521.844 -701.326 -576.128C-894.483 -1674.1 -163.03 -2721.12 932.419 -2914.73Z" stroke="#ADADAD"/>
<path d="M1269.32 -2845.94C2377.43 -2943.11 3354.33 -2121.51 3451.28 -1010.84C3548.22 99.8237 2728.51 1078.97 1620.39 1176.14C512.28 1273.31 -464.619 451.71 -561.566 -658.957C-658.514 -1769.62 161.201 -2748.77 1269.32 -2845.94Z" stroke="#A5A5A5"/>
<path d="M1593.61 -2745.2C2705.96 -2745.2 3607.7 -1841.39 3607.7 -726.477C3607.7 388.432 2705.96 1292.24 1593.61 1292.24C481.265 1292.24 -420.473 388.433 -420.474 -726.477C-420.474 -1841.39 481.264 -2745.2 1593.61 -2745.2Z" stroke="#9E9E9E"/>
<path d="M1902.58 -2613.73C3010.69 -2516.55 3830.41 -1537.41 3733.46 -426.744C3636.51 683.923 2659.61 1505.52 1551.5 1408.35C443.382 1311.18 -376.333 332.038 -279.385 -778.629C-182.437 -1889.3 794.461 -2710.9 1902.58 -2613.73Z" stroke="#969696"/>
<path d="M2193.59 -2452.98C3289.04 -2259.38 4020.5 -1212.35 3827.34 -114.379C3634.18 983.592 2589.56 1716.73 1494.11 1523.12C398.66 1329.52 -332.794 282.498 -139.636 -815.473C53.5212 -1913.44 1098.14 -2646.58 2193.59 -2452.98Z" stroke="#8F8F8F"/>
<path d="M2464.19 -2264.63C3538.63 -1976.07 4176.26 -869.136 3888.36 207.784C3600.46 1284.7 2496.06 1923.79 1421.62 1635.23C347.174 1346.68 -290.452 239.738 -2.55425 -837.182C285.343 -1914.1 1389.74 -2553.19 2464.19 -2264.63Z" stroke="#878787"/>
<path d="M2712.04 -2050.58C3757.3 -1669.26 4296.25 -510.836 3915.8 536.836C3535.35 1584.51 2379.58 2124.69 1334.32 1743.37C289.054 1362.05 -249.89 203.622 130.556 -844.049C511.002 -1891.72 1666.77 -2431.9 2712.04 -2050.58Z" stroke="#808080"/>
<path d="M2934.99 -1812.91C3943.12 -1341.73 4379.28 -140.633 3909.18 869.818C3439.08 1880.27 2240.74 2317.43 1232.61 1846.25C224.481 1375.07 -211.681 173.973 258.419 -836.478C728.518 -1846.93 1926.86 -2284.09 2934.99 -1812.91Z" stroke="#787878"/>
<path d="M3131.09 -1553.88C4094.41 -996.429 4424.47 238.2 3868.3 1203.74C3312.12 2169.28 2080.33 2500.1 1117.01 1942.64C153.683 1385.19 -176.376 150.559 379.799 -814.98C935.974 -1780.52 2167.77 -2111.34 3131.09 -1553.88Z" stroke="#717171"/>
<path d="M3298.58 -1275.92C4209.77 -636.439 4431.21 622.325 3793.19 1535.6C3155.18 2448.88 1899.3 2670.84 988.119 2031.35C76.9363 1391.87 -144.509 133.104 493.509 -780.175C1131.53 -1693.45 2387.4 -1915.41 3298.58 -1275.92Z" stroke="#696969"/>
<path d="M3435.93 -981.605C4288.04 -264.957 4399.19 1008.36 3684.18 1862.43C2969.18 2716.5 1698.78 2827.9 846.672 2111.25C-5.437 1394.6 -116.582 121.285 598.422 -732.784C1313.43 -1586.85 2583.82 -1698.25 3435.93 -981.605Z" stroke="#626262"/>
<path d="M3541.82 -673.624C4328.37 114.735 4328.37 1392.92 3541.82 2181.28C2755.28 2969.64 1480.03 2969.64 693.477 2181.28C-93.0728 1392.92 -93.0729 114.735 693.477 -673.624C1480.03 -1461.98 2755.28 -1461.98 3541.82 -673.624Z" stroke="#5A5A5A"/>
<path d="M3615.2 -354.779C4330.2 499.29 4219.06 1772.61 3366.95 2489.26C2514.84 3205.91 1244.44 3094.51 529.438 2240.44C-185.567 1386.37 -74.4211 113.049 777.688 -603.6C1629.8 -1320.25 2900.19 -1208.85 3615.2 -354.779Z" stroke="#535353"/>
<path d="M3655.23 -27.9515C4293.24 885.328 4071.8 2144.09 3160.62 2783.58C2249.43 3423.06 993.558 3201.11 355.541 2287.83C-282.477 1374.55 -61.0318 115.785 850.151 -523.7C1761.33 -1163.18 3017.21 -941.231 3655.23 -27.9515Z" stroke="#4B4B4B"/>
<path d="M3661.35 303.913C4217.52 1269.45 3887.46 2504.08 2924.14 3061.54C1960.82 3618.99 729.021 3288.17 172.846 2322.63C-383.329 1357.09 -53.2696 122.464 910.053 -434.99C1873.37 -992.444 3105.17 -661.626 3661.35 303.913Z" stroke="#444444"/>
<path d="M3633.25 637.835C4103.35 1648.29 3667.18 2849.38 2659.05 3320.56C1650.92 3791.74 452.582 3354.58 -17.5178 2344.13C-487.617 1333.68 -51.4559 132.581 956.674 -338.599C1964.8 -809.779 3163.15 -372.616 3633.25 637.835Z" stroke="#3C3C3C"/>
<path d="M3570.88 970.817C3951.32 2018.49 3412.38 3176.92 2367.11 3558.24C1321.85 3939.56 166.081 3399.37 -214.365 2351.7C-594.812 1304.03 -55.8672 145.604 989.398 -235.717C2034.66 -617.038 3190.43 -76.8551 3570.88 970.817Z" stroke="#353535"/>
</g>
<rect width="1920" height="1080" fill="url(#paint0_linear_2_64)"/>
<defs>
<linearGradient id="paint0_linear_2_64" x1="960" y1="9" x2="960" y2="965" gradientUnits="userSpaceOnUse">
<stop stop-color="#0C0C0C"/>
<stop offset="0.515625" stop-color="#0C0C0C" stop-opacity="0"/>
<stop offset="1" stop-color="#0C0C0C"/>
</linearGradient>
<clipPath id="clip0_2_64">
<rect x="-195" y="1080" width="1080" height="2336" transform="rotate(-90 -195 1080)" fill="white"/>
</clipPath>
</defs>
</svg>
