<svg width="1115" height="823" viewBox="0 0 1115 823" fill="none" xmlns="http://www.w3.org/2000/svg">
<rect y="70" width="1029" height="670" rx="16" fill="url(#paint0_linear_1_281)"/>
<rect x="1" y="71" width="1027" height="668" rx="15" stroke="white" stroke-opacity="0.2" stroke-width="2"/>
<g filter="url(#filter0_d_1_281)">
<rect x="229" y="654" width="108" height="108" rx="16" fill="url(#paint1_linear_1_281)"/>
</g>
<path d="M259.86 729.02L269.46 713.667M276.537 702.343L286.127 686.997M276.55 713.683L286.137 729.017M293.21 687L302.813 702.367M263 734.667C263 732.899 262.298 731.203 261.047 729.953C259.797 728.702 258.102 728 256.333 728C254.565 728 252.87 728.702 251.619 729.953C250.369 731.203 249.667 732.899 249.667 734.667C249.667 736.435 250.369 738.13 251.619 739.381C252.87 740.631 254.565 741.333 256.333 741.333C258.102 741.333 259.797 740.631 261.047 739.381C262.298 738.13 263 736.435 263 734.667ZM296.333 681.333C296.333 679.565 295.631 677.87 294.381 676.619C293.131 675.369 291.435 674.667 289.667 674.667C287.899 674.667 286.203 675.369 284.953 676.619C283.702 677.87 283 679.565 283 681.333C283 683.101 283.702 684.797 284.953 686.047C286.203 687.298 287.899 688 289.667 688C291.435 688 293.131 687.298 294.381 686.047C295.631 684.797 296.333 683.101 296.333 681.333ZM296.333 734.667C296.333 732.899 295.631 731.203 294.381 729.953C293.131 728.702 291.435 728 289.667 728C287.899 728 286.203 728.702 284.953 729.953C283.702 731.203 283 732.899 283 734.667C283 736.435 283.702 738.13 284.953 739.381C286.203 740.631 287.899 741.333 289.667 741.333C291.435 741.333 293.131 740.631 294.381 739.381C295.631 738.13 296.333 736.435 296.333 734.667ZM279.667 708C279.667 706.232 278.964 704.536 277.714 703.286C276.464 702.036 274.768 701.333 273 701.333C271.232 701.333 269.536 702.036 268.286 703.286C267.036 704.536 266.333 706.232 266.333 708C266.333 709.768 267.036 711.464 268.286 712.714C269.536 713.964 271.232 714.667 273 714.667C274.768 714.667 276.464 713.964 277.714 712.714C278.964 711.464 279.667 709.768 279.667 708ZM313 708C313 706.232 312.298 704.536 311.047 703.286C309.797 702.036 308.102 701.333 306.333 701.333C304.565 701.333 302.87 702.036 301.619 703.286C300.369 704.536 299.667 706.232 299.667 708C299.667 709.768 300.369 711.464 301.619 712.714C302.87 713.964 304.565 714.667 306.333 714.667C308.102 714.667 309.797 713.964 311.047 712.714C312.298 711.464 313 709.768 313 708Z" stroke="url(#paint2_linear_1_281)" stroke-width="6" stroke-linecap="round" stroke-linejoin="round"/>
<rect x="388" y="494" width="80" height="80" rx="12" fill="url(#paint3_linear_1_281)"/>
<g clip-path="url(#clip0_1_281)">
<path d="M457.439 535.688C456.713 533.461 454.287 532.277 452.049 533.004L446.728 534.773L443.177 524.227L448.498 522.457C450.736 521.73 451.908 519.316 451.193 517.078C450.467 514.852 448.041 513.668 445.802 514.395L440.482 516.164L438.642 510.656C437.916 508.43 435.49 507.246 433.252 507.973C431.013 508.699 429.842 511.113 430.556 513.352L432.396 518.859L421.451 522.516L419.611 517.008C418.884 514.781 416.459 513.598 414.22 514.324C411.982 515.051 410.81 517.465 411.525 519.703L413.365 525.211L408.056 526.969C405.818 527.695 404.646 530.109 405.361 532.348C405.947 534.047 407.599 535.16 409.299 535.23C410.095 535.348 410.705 535.043 416.06 533.262L419.611 543.809L414.291 545.578C412.064 546.305 410.881 548.73 411.595 550.957C412.181 552.656 413.834 553.77 415.533 553.84C416.33 553.957 416.939 553.652 422.295 551.871L424.134 557.379C424.826 559.359 427.029 560.777 429.525 560.063C431.763 559.336 432.935 556.922 432.22 554.684L430.381 549.176L441.349 545.508L443.189 551.016C443.881 552.996 446.084 554.414 448.58 553.699C450.818 552.973 451.99 550.559 451.275 548.32L449.435 542.813L454.756 541.043C456.982 540.34 458.166 537.914 457.439 535.688V535.688ZM427.662 541.219L424.111 530.648L435.068 526.98L438.619 537.551L427.662 541.219V541.219Z" fill="url(#paint4_linear_1_281)"/>
</g>
<rect x="455" y="325" width="290" height="290" rx="16" fill="url(#paint5_linear_1_281)"/>
<g clip-path="url(#clip1_1_281)">
<path d="M622.5 351.8L631.5 353.8L638.8 356.4L644.7 359.4L649.2 362.6L652.6 366L655.1 369.4L656.7 372.7L657.7 375.7L658.1 378.3L658.3 380.3L658.2 381.6V435L657.7 441.3L656.4 446.8L654.3 451.4L651.7 455.2L648.7 458.3L645.4 460.8L641.9 462.7L638.4 464.1L635.1 465.1L632.1 465.8L629.5 466.2L627.4 466.4H567.7L560.8 466.9L554.9 468.3L549.9 470.5L545.8 473.2L542.5 476.4L539.8 479.9L537.8 483.5L536.3 487.2L535.3 490.7L534.6 493.9L534.2 496.6L534 498.7V529.3H511.7L509.6 529L506.8 528.3L503.6 527.1L500.1 525.3L496.5 522.7L492.9 519.1L489.4 514.5L486.2 508.6L483.4 501.3L481.3 492.5L479.9 482L479.4 469.7L480 457.5L481.6 447.1L484 438.4L487.2 431.3L490.8 425.6L494.8 421.2L499 417.9L503.2 415.5L507.2 413.9L510.8 412.9L514 412.4L516.4 412.3H518L518.6 412.4H600.2V404.1H541.8L541.7 376.6L541.5 372.9L542 369.5L543.1 366.4L544.8 363.6L547.3 361L550.4 358.7L554.2 356.7L558.6 354.9L563.7 353.4L569.5 352.2L575.9 351.2L583 350.6L590.7 350.2L599.1 350L611.8 350.5L622.5 351.8ZM559.5 371.6L557.2 374.9L556.4 379L557.2 383.1L559.5 386.5L562.8 388.7L566.9 389.6L571 388.7L574.3 386.5L576.6 383.1L577.4 379L576.6 374.9L574.3 371.6L571 369.4L566.9 368.5L562.8 369.4L559.5 371.6ZM690.4 411.1L693.2 411.7L696.4 412.9L699.9 414.7L703.5 417.4L707.1 420.9L710.6 425.6L713.8 431.5L716.6 438.8L718.7 447.6L720.1 458L720.6 470.3L720 482.6L718.4 493L716 501.6L712.8 508.7L709.2 514.4L705.2 518.9L701 522.2L696.8 524.6L692.8 526.2L689.2 527.1L686 527.6L683.6 527.8L682 527.7H599.8V535.9H658.2L658.3 563.5L658.5 567.1L658 570.5L656.9 573.6L655.2 576.5L652.7 579L649.6 581.4L645.8 583.4L641.4 585.1L636.3 586.6L630.5 587.9L624.1 588.8L617 589.5L609.3 589.9L600.9 590L588.2 589.6L577.5 588.2L568.5 586.2L561.2 583.7L555.3 580.7L550.8 577.4L547.4 574L544.9 570.6L543.3 567.3L542.3 564.3L541.9 561.8L541.7 559.8L541.8 558.5V505.1L542.3 498.7L543.6 493.3L545.7 488.7L548.3 484.9L551.3 481.7L554.6 479.3L558.1 477.3L561.6 475.9L564.9 474.9L567.9 474.3L570.5 473.9L572.6 473.7L573.9 473.6H632.3L639.2 473.1L645.1 471.7L650.1 469.6L654.2 466.8L657.5 463.6L660.2 460.1L662.2 456.5L663.7 452.9L664.7 449.4L665.4 446.2L665.8 443.4L666 441.3V410.7H686.9L688.3 410.8L690.4 411.1ZM625.7 553.6L623.4 556.9L622.6 561L623.4 565.1L625.7 568.4L629 570.7L633.1 571.5L637.2 570.7L640.5 568.4L642.8 565.1L643.6 561L642.8 556.9L640.5 553.6L637.2 551.3L633.1 550.5L629 551.3L625.7 553.6Z" fill="url(#paint6_linear_1_281)"/>
</g>
<rect x="568" y="138" width="250" height="250" rx="16" fill="url(#paint7_linear_1_281)"/>
<g clip-path="url(#clip2_1_281)">
<path d="M774.164 207.252L700.692 164.833C696.459 162.389 689.533 162.389 685.3 164.833L611.829 207.252C607.596 209.695 604.133 215.694 604.133 220.581V305.419C604.462 311.111 607.37 315.825 611.828 318.748L685.301 361.167C689.533 363.611 696.459 363.611 700.692 361.167L774.164 318.748C778.949 315.566 781.672 310.777 781.86 305.419V220.581C781.688 215.439 778.609 210.252 774.165 207.252H774.164ZM633.754 263C633.406 205.153 710.887 179.61 744.299 233.361L718.661 248.196C703.184 222.598 664.754 231.751 663.375 263C663.789 291.801 701.56 305.179 718.663 277.802L744.301 292.638C714.855 343.756 635.239 325.364 633.754 263H633.754ZM752.238 266.291H745.656V272.874H739.074V266.291H732.492V259.709H739.074V253.127H745.656V259.709H752.239V266.291H752.238ZM776.923 266.291H770.34V272.874H763.758V266.291H757.176V259.709H763.759V253.127H770.34V259.709H776.923V266.291H776.923Z" fill="url(#paint8_linear_1_281)"/>
</g>
<rect x="711" y="298" width="192" height="192" rx="16" fill="url(#paint9_linear_1_281)"/>
<path d="M837 354.533C837 354.533 791.4 365.933 813.267 391.067C819.733 398.467 811.6 405.133 811.6 405.133C811.6 405.133 827.933 396.8 820.333 386.133C813.267 376.333 807.933 371.467 837 354.533ZM807.2 362.533C834.2 341.2 820.333 327.333 820.333 327.333C825.933 349.333 800.6 356 791.467 369.733C785.2 379.067 794.533 389.133 807 400.667C802.267 389.333 785.533 379.6 807.2 362.533M789.467 430.467C768.933 436.2 802 448 828.067 436.867C825.533 435.867 823.067 434.667 820.733 433.267C811.667 435.333 802.333 435.733 793.133 434.467C784.4 433.4 789.467 430.467 789.467 430.467M824.933 419.267C813.267 421.8 801.2 422.4 789.333 421C780.6 420.133 786.333 415.867 786.333 415.867C763.667 423.4 798.867 431.867 830.333 422.667C828.4 421.933 826.533 420.667 824.933 419.267M847.733 441.267C847.733 441.267 851.533 444.4 843.667 446.8C828.467 451.333 780.8 452.733 767.6 447C762.867 444.933 771.8 442.067 774.6 441.467C776.133 441.067 777.667 440.933 779.2 440.933C773.933 437.333 745 448.267 764.6 451.333C817.733 460 861.533 447.333 847.733 441.267ZM829.467 408.867C831.4 407.6 833.467 406.533 835.6 405.6C835.6 405.6 825.533 407.333 815.467 408.267C804.8 409.333 794.067 409.467 783.4 408.667C767.733 406.6 792 400.667 792 400.667C784.667 400.667 777.467 402.4 770.933 405.667C757.267 412.333 804.933 415.333 829.467 408.867M835.467 425C835.333 425.267 835.2 425.467 834.933 425.667C868.333 416.933 856.067 394.733 840.067 400.267C839.2 400.667 838.467 401.2 838 401.933C838.933 401.6 839.867 401.333 840.867 401.133C848.867 399.533 860.333 412 835.467 425M836.333 455.733C816.267 459.2 795.733 459.467 775.533 456.667C775.533 456.667 778.6 459.2 794.267 460.2C818.267 461.733 855.133 459.333 856 448C856.2 448.067 854.467 452.333 836.333 455.733V455.733Z" fill="url(#paint10_linear_1_281)"/>
<rect x="970" y="199" width="127" height="127" rx="16" fill="url(#paint11_linear_1_281)"/>
<path d="M995 255.042L994.917 254.792L995.833 253.667L996.333 253.333H1012.33L1012.46 253.667L1011.71 254.75L1011.25 255L995 255.042ZM988.292 259.125L988.167 258.917L989.083 257.708L989.583 257.458H1010L1010.21 257.833L1009.88 258.833L1009.46 259.125H988.292ZM999.125 263.25L998.958 263L999.625 261.833L1000.04 261.583H1009L1009.29 261.875L1009.21 262.917L1008.88 263.25H999.125ZM1045.58 254.25L1038.17 256.208C1037.38 256.375 1037.33 256.417 1036.75 255.75C1036.08 255 1035.63 254.542 1034.67 254.083C1031.92 252.667 1029.13 253.083 1026.58 254.708C1023.58 256.708 1021.96 259.583 1022 263.25C1022.04 266.833 1024.5 269.792 1028.04 270.333C1031.08 270.708 1033.63 269.625 1035.67 267.333L1036.88 265.708H1028.25C1027.33 265.708 1027.13 265.125 1027.42 264.375L1029.71 259.458C1029.83 259.208 1030.17 258.75 1030.83 258.75H1045.17C1045.79 256.667 1046.88 254.75 1048.29 252.875C1051.54 248.583 1055.5 246.333 1060.79 245.333C1065.25 244.583 1069.67 245.042 1073.58 247.708C1077.08 250.125 1079.29 253.375 1079.83 257.667C1080.63 263.708 1078.83 268.625 1074.67 272.875C1071.71 275.875 1068.08 277.75 1063.96 278.667L1060.38 279C1056.29 278.917 1052.58 277.75 1049.46 275.042C1047.29 273.167 1045.79 270.917 1045.04 268.25C1044.42 269.25 1043.92 270.208 1043.21 271.167C1040 275.417 1035.79 278.042 1030.46 278.667C1026.08 279.333 1022 278.458 1018.42 275.792C1015.13 273.292 1013.17 269.958 1012.75 265.833C1012.17 260.958 1013.58 256.583 1016.54 252.75C1019.71 248.583 1023.92 245.958 1029.08 245C1033.25 244.25 1037.29 244.75 1040.92 247.167C1043.29 248.75 1044.96 250.917 1046.08 253.5C1046.25 253.875 1046.08 254.125 1045.58 254.25M1071.04 260.917L1070.92 259.417C1070.13 255 1066.04 252.5 1061.79 253.458C1057.58 254.375 1054.83 257 1053.96 261.208C1053.17 264.708 1054.83 268.25 1058.04 269.667C1060.5 270.75 1063 270.583 1065.38 269.417C1068.88 267.625 1070.83 264.75 1071.04 260.917Z" fill="url(#paint12_linear_1_281)"/>
<rect x="1020" y="315" width="53" height="53" rx="12" fill="url(#paint13_linear_1_281)"/>
<path d="M1037 355.333L1043.93 335.183L1042.57 332H1040.33V328.667H1043.67C1044.37 328.667 1044.97 329.1 1045.22 329.717L1054.77 352H1057V355.333H1053.67C1052.95 355.333 1052.35 354.883 1052.12 354.267L1045.88 339.75L1040.53 355.333H1037Z" fill="url(#paint14_linear_1_281)"/>
<rect x="869" y="99" width="72" height="72" rx="12" fill="url(#paint15_linear_1_281)"/>
<path d="M905.98 119.343C903.413 119.11 901.15 121 900.917 123.59L900.333 130.333H906.913V135H899.913L898.887 146.83C898.712 148.779 897.93 150.624 896.65 152.103C895.37 153.583 893.657 154.624 891.754 155.078C889.851 155.532 887.853 155.376 886.043 154.633C884.233 153.89 882.702 152.597 881.667 150.937L885.167 147.437C885.937 149.887 888.573 151.263 891 150.47C892.82 149.91 894.103 148.3 894.267 146.41L895.247 135H888.247V130.333H895.667L896.297 123.17C896.51 120.702 897.694 118.42 899.588 116.823C901.482 115.227 903.932 114.446 906.4 114.653C909.34 114.91 912 116.543 913.54 119.063L910.04 122.563C909.457 120.767 907.87 119.507 905.98 119.343ZM928.333 138.85L925.043 135.56L918.44 142.163L911.837 135.56L908.5 138.85L915.15 145.5L908.5 152.057L911.837 155.347L918.44 148.743L925.043 155.347L928.333 152.057L921.73 145.5L928.333 138.85Z" fill="url(#paint16_linear_1_281)"/>
<rect x="1079" width="36" height="36" rx="6" fill="url(#paint17_linear_1_281)"/>
<rect x="138" y="787" width="36" height="36" rx="8" fill="url(#paint18_linear_1_281)"/>
<g filter="url(#filter1_f_1_281)">
<circle cx="443" cy="651" r="8" fill="#FF6C39"/>
</g>
<circle cx="443" cy="651" r="6" fill="#FF6C39" fill-opacity="0.8"/>
<g filter="url(#filter2_f_1_281)">
<circle cx="567" cy="165" r="12" fill="#FF6C39"/>
</g>
<circle cx="567" cy="165" r="9" fill="#FF6C39" fill-opacity="0.8"/>
<g filter="url(#filter3_f_1_281)">
<circle cx="202" cy="728" r="12" fill="#FFBC00"/>
</g>
<circle cx="202" cy="728" r="9" fill="#FFBC00" fill-opacity="0.8"/>
<g filter="url(#filter4_f_1_281)">
<circle cx="913.5" cy="214.5" r="8.5" fill="#FFBC00"/>
</g>
<circle cx="913.5" cy="214.5" r="6.375" fill="#FFBC00" fill-opacity="0.8"/>
<g filter="url(#filter5_f_1_281)">
<circle cx="930.5" cy="384.5" r="3.5" fill="#FFBC00"/>
</g>
<circle cx="930.5" cy="384.5" r="2.625" fill="#FFBC00" fill-opacity="0.8"/>
<g filter="url(#filter6_f_1_281)">
<circle cx="855" cy="520" r="10" fill="#FF0058"/>
</g>
<circle cx="855" cy="520" r="7.5" fill="#FF0058" fill-opacity="0.8"/>
<g filter="url(#filter7_f_1_281)">
<circle cx="323.5" cy="454.5" r="6.5" fill="#FF0058"/>
</g>
<circle cx="323.5" cy="454.5" r="4.875" fill="#FF0058" fill-opacity="0.8"/>
<g filter="url(#filter8_f_1_281)">
<circle cx="281" cy="60" r="4" fill="#FF0058"/>
</g>
<circle cx="281" cy="60" r="3" fill="#FF0058" fill-opacity="0.8"/>
<g filter="url(#filter9_f_1_281)">
<circle cx="1051" cy="74" r="4" fill="#FF0058"/>
</g>
<circle cx="1051" cy="74" r="3" fill="#FF0058" fill-opacity="0.8"/>
<defs>
<filter id="filter0_d_1_281" x="225" y="654" width="116" height="116" filterUnits="userSpaceOnUse" color-interpolation-filters="sRGB">
<feFlood flood-opacity="0" result="BackgroundImageFix"/>
<feColorMatrix in="SourceAlpha" type="matrix" values="0 0 0 0 0 0 0 0 0 0 0 0 0 0 0 0 0 0 127 0" result="hardAlpha"/>
<feOffset dy="4"/>
<feGaussianBlur stdDeviation="2"/>
<feComposite in2="hardAlpha" operator="out"/>
<feColorMatrix type="matrix" values="0 0 0 0 0 0 0 0 0 0 0 0 0 0 0 0 0 0 0.25 0"/>
<feBlend mode="normal" in2="BackgroundImageFix" result="effect1_dropShadow_1_281"/>
<feBlend mode="normal" in="SourceGraphic" in2="effect1_dropShadow_1_281" result="shape"/>
</filter>
<filter id="filter1_f_1_281" x="427" y="635" width="32" height="32" filterUnits="userSpaceOnUse" color-interpolation-filters="sRGB">
<feFlood flood-opacity="0" result="BackgroundImageFix"/>
<feBlend mode="normal" in="SourceGraphic" in2="BackgroundImageFix" result="shape"/>
<feGaussianBlur stdDeviation="4" result="effect1_foregroundBlur_1_281"/>
</filter>
<filter id="filter2_f_1_281" x="547" y="145" width="40" height="40" filterUnits="userSpaceOnUse" color-interpolation-filters="sRGB">
<feFlood flood-opacity="0" result="BackgroundImageFix"/>
<feBlend mode="normal" in="SourceGraphic" in2="BackgroundImageFix" result="shape"/>
<feGaussianBlur stdDeviation="4" result="effect1_foregroundBlur_1_281"/>
</filter>
<filter id="filter3_f_1_281" x="182" y="708" width="40" height="40" filterUnits="userSpaceOnUse" color-interpolation-filters="sRGB">
<feFlood flood-opacity="0" result="BackgroundImageFix"/>
<feBlend mode="normal" in="SourceGraphic" in2="BackgroundImageFix" result="shape"/>
<feGaussianBlur stdDeviation="4" result="effect1_foregroundBlur_1_281"/>
</filter>
<filter id="filter4_f_1_281" x="897" y="198" width="33" height="33" filterUnits="userSpaceOnUse" color-interpolation-filters="sRGB">
<feFlood flood-opacity="0" result="BackgroundImageFix"/>
<feBlend mode="normal" in="SourceGraphic" in2="BackgroundImageFix" result="shape"/>
<feGaussianBlur stdDeviation="4" result="effect1_foregroundBlur_1_281"/>
</filter>
<filter id="filter5_f_1_281" x="919" y="373" width="23" height="23" filterUnits="userSpaceOnUse" color-interpolation-filters="sRGB">
<feFlood flood-opacity="0" result="BackgroundImageFix"/>
<feBlend mode="normal" in="SourceGraphic" in2="BackgroundImageFix" result="shape"/>
<feGaussianBlur stdDeviation="4" result="effect1_foregroundBlur_1_281"/>
</filter>
<filter id="filter6_f_1_281" x="837" y="502" width="36" height="36" filterUnits="userSpaceOnUse" color-interpolation-filters="sRGB">
<feFlood flood-opacity="0" result="BackgroundImageFix"/>
<feBlend mode="normal" in="SourceGraphic" in2="BackgroundImageFix" result="shape"/>
<feGaussianBlur stdDeviation="4" result="effect1_foregroundBlur_1_281"/>
</filter>
<filter id="filter7_f_1_281" x="309" y="440" width="29" height="29" filterUnits="userSpaceOnUse" color-interpolation-filters="sRGB">
<feFlood flood-opacity="0" result="BackgroundImageFix"/>
<feBlend mode="normal" in="SourceGraphic" in2="BackgroundImageFix" result="shape"/>
<feGaussianBlur stdDeviation="4" result="effect1_foregroundBlur_1_281"/>
</filter>
<filter id="filter8_f_1_281" x="269" y="48" width="24" height="24" filterUnits="userSpaceOnUse" color-interpolation-filters="sRGB">
<feFlood flood-opacity="0" result="BackgroundImageFix"/>
<feBlend mode="normal" in="SourceGraphic" in2="BackgroundImageFix" result="shape"/>
<feGaussianBlur stdDeviation="4" result="effect1_foregroundBlur_1_281"/>
</filter>
<filter id="filter9_f_1_281" x="1039" y="62" width="24" height="24" filterUnits="userSpaceOnUse" color-interpolation-filters="sRGB">
<feFlood flood-opacity="0" result="BackgroundImageFix"/>
<feBlend mode="normal" in="SourceGraphic" in2="BackgroundImageFix" result="shape"/>
<feGaussianBlur stdDeviation="4" result="effect1_foregroundBlur_1_281"/>
</filter>
<linearGradient id="paint0_linear_1_281" x1="514.5" y1="70" x2="514.5" y2="740" gradientUnits="userSpaceOnUse">
<stop stop-color="#141418"/>
<stop offset="1" stop-color="#0C0C0C"/>
<stop offset="1" stop-color="#0C0C0C"/>
</linearGradient>
<linearGradient id="paint1_linear_1_281" x1="283" y1="654" x2="283" y2="762" gradientUnits="userSpaceOnUse">
<stop stop-color="#18181B"/>
<stop offset="1" stop-color="#0F0F0F"/>
</linearGradient>
<linearGradient id="paint2_linear_1_281" x1="281.333" y1="674.667" x2="281.333" y2="741.333" gradientUnits="userSpaceOnUse">
<stop stop-color="white" stop-opacity="0.2"/>
<stop offset="1" stop-color="white" stop-opacity="0.01"/>
</linearGradient>
<linearGradient id="paint3_linear_1_281" x1="428" y1="494" x2="428" y2="574" gradientUnits="userSpaceOnUse">
<stop stop-color="#18181B"/>
<stop offset="1" stop-color="#0F0F0F"/>
</linearGradient>
<linearGradient id="paint4_linear_1_281" x1="431.402" y1="507.759" x2="431.402" y2="560.25" gradientUnits="userSpaceOnUse">
<stop stop-color="white" stop-opacity="0.2"/>
<stop offset="1" stop-color="white" stop-opacity="0.05"/>
</linearGradient>
<linearGradient id="paint5_linear_1_281" x1="600" y1="325" x2="600" y2="615" gradientUnits="userSpaceOnUse">
<stop stop-color="#18181B"/>
<stop offset="1" stop-color="#0F0F0F"/>
</linearGradient>
<linearGradient id="paint6_linear_1_281" x1="600" y1="350" x2="600" y2="590" gradientUnits="userSpaceOnUse">
<stop stop-color="white" stop-opacity="0.15"/>
<stop offset="1" stop-color="white" stop-opacity="0.01"/>
</linearGradient>
<linearGradient id="paint7_linear_1_281" x1="693" y1="138" x2="693" y2="388" gradientUnits="userSpaceOnUse">
<stop stop-color="#18181B"/>
<stop offset="1" stop-color="#0F0F0F"/>
</linearGradient>
<linearGradient id="paint8_linear_1_281" x1="692.996" y1="163" x2="692.996" y2="363" gradientUnits="userSpaceOnUse">
<stop stop-color="white" stop-opacity="0.15"/>
<stop offset="1" stop-color="white" stop-opacity="0"/>
</linearGradient>
<linearGradient id="paint9_linear_1_281" x1="807" y1="298" x2="807" y2="490" gradientUnits="userSpaceOnUse">
<stop stop-color="#18181B"/>
<stop offset="1" stop-color="#0F0F0F"/>
</linearGradient>
<linearGradient id="paint10_linear_1_281" x1="806.996" y1="327.333" x2="806.996" y2="460.617" gradientUnits="userSpaceOnUse">
<stop stop-color="white" stop-opacity="0.3"/>
<stop offset="1" stop-color="white" stop-opacity="0.02"/>
</linearGradient>
<linearGradient id="paint11_linear_1_281" x1="1033.5" y1="199" x2="1033.5" y2="326" gradientUnits="userSpaceOnUse">
<stop stop-color="#18181B"/>
<stop offset="1" stop-color="#0F0F0F"/>
</linearGradient>
<linearGradient id="paint12_linear_1_281" x1="1034.09" y1="244.679" x2="1034.09" y2="279" gradientUnits="userSpaceOnUse">
<stop stop-color="white" stop-opacity="0.2"/>
<stop offset="1" stop-color="white" stop-opacity="0.01"/>
</linearGradient>
<linearGradient id="paint13_linear_1_281" x1="1046.5" y1="315" x2="1046.5" y2="368" gradientUnits="userSpaceOnUse">
<stop stop-color="#18181B"/>
<stop offset="1" stop-color="#0F0F0F"/>
</linearGradient>
<linearGradient id="paint14_linear_1_281" x1="1047" y1="328.667" x2="1047" y2="355.333" gradientUnits="userSpaceOnUse">
<stop stop-color="white" stop-opacity="0.2"/>
<stop offset="1" stop-color="white" stop-opacity="0"/>
</linearGradient>
<linearGradient id="paint15_linear_1_281" x1="905" y1="99" x2="905" y2="171" gradientUnits="userSpaceOnUse">
<stop stop-color="#18181B"/>
<stop offset="1" stop-color="#0F0F0F"/>
</linearGradient>
<linearGradient id="paint16_linear_1_281" x1="905" y1="114.621" x2="905" y2="155.347" gradientUnits="userSpaceOnUse">
<stop stop-color="white"/>
<stop offset="0.0001" stop-color="white" stop-opacity="0.18"/>
<stop offset="1" stop-color="white" stop-opacity="0.03"/>
</linearGradient>
<linearGradient id="paint17_linear_1_281" x1="1097" y1="0" x2="1097" y2="36" gradientUnits="userSpaceOnUse">
<stop stop-color="#18181B"/>
<stop offset="1" stop-color="#0F0F0F"/>
</linearGradient>
<linearGradient id="paint18_linear_1_281" x1="156" y1="787" x2="156" y2="823" gradientUnits="userSpaceOnUse">
<stop stop-color="#18181B"/>
<stop offset="1" stop-color="#0F0F0F"/>
</linearGradient>
<clipPath id="clip0_1_281">
<rect width="52.8" height="60" fill="white" transform="translate(405 504)"/>
</clipPath>
<clipPath id="clip1_1_281">
<rect width="240" height="240" fill="white" transform="translate(480 350)"/>
</clipPath>
<clipPath id="clip2_1_281">
<rect width="178" height="200" fill="white" transform="translate(604 163)"/>
</clipPath>
</defs>
</svg>
