<svg width="144" height="161" viewBox="0 0 144 161" fill="none" xmlns="http://www.w3.org/2000/svg">
<path fill-rule="evenodd" clip-rule="evenodd" d="M47.7929 28.0858C53.3157 28.0858 57.7929 23.6086 57.7929 18.0858C57.7929 12.5629 53.3157 8.08578 47.7929 8.08578C42.2701 8.08578 37.7929 12.5629 37.7929 18.0858C37.7929 23.6086 42.2701 28.0858 47.7929 28.0858ZM47.7929 36.0858C57.734 36.0858 65.7929 28.0269 65.7929 18.0858C65.7929 8.14466 57.734 0.0857849 47.7929 0.0857849C37.8518 0.0857849 29.7929 8.14466 29.7929 18.0858C29.7929 28.0269 37.8518 36.0858 47.7929 36.0858ZM5.47615 35.1439C5.25413 35.1057 5.02584 35.0858 4.79291 35.0858C2.58377 35.0858 0.792908 36.8766 0.792908 39.0858L0.792915 131.086C0.792916 132.213 1.25908 133.231 2.00912 133.958C2.33028 134.405 2.74936 134.793 3.25701 135.086L44.8262 159.086C45.2641 159.339 45.7298 159.499 46.2011 159.574C46.7418 159.846 47.353 160 48 160C50.2091 160 52 158.209 52 156L52 44C52 41.7909 50.2091 40 48 40C45.7909 40 44 41.7909 44 44L44 149.371L8.79292 129.044L8.79291 82.5642C19.6479 80.2639 27.7929 70.626 27.7929 59.0858C27.7929 46.3968 17.9456 36.0078 5.47615 35.1439ZM8.79291 74.289C15.1808 72.1894 19.7929 66.1762 19.7929 59.0858C19.7929 51.9954 15.1808 45.9821 8.79291 43.8825L8.79291 74.289Z" fill="url(#paint0_linear_2_40)"/>
<path fill-rule="evenodd" clip-rule="evenodd" d="M90 91C101.046 91 110 82.0457 110 71C110 59.9543 101.046 51 90 51C78.9543 51 70 59.9543 70 71C70 82.0457 78.9543 91 90 91ZM90 99C105.464 99 118 86.464 118 71C118 55.536 105.464 43 90 43C74.536 43 62 55.536 62 71C62 86.464 74.536 99 90 99ZM132 109C134.209 109 136 107.209 136 105C136 102.791 134.209 101 132 101C129.791 101 128 102.791 128 105C128 107.209 129.791 109 132 109ZM132 117C138.627 117 144 111.627 144 105C144 98.3726 138.627 93 132 93C125.373 93 120 98.3726 120 105C120 111.627 125.373 117 132 117ZM86 157C86 159.209 87.7909 161 90 161C91.1838 161 92.2475 160.486 92.9799 159.668L133.826 136.086C134.868 135.484 135.537 134.485 135.752 133.39C135.912 132.957 136 132.489 136 132V124C136 121.791 134.209 120 132 120C129.791 120 128 121.791 128 124V130.212L94 149.842L94 109C94 106.791 92.2091 105 90 105C87.7909 105 86 106.791 86 109L86 157Z" fill="url(#paint1_linear_2_40)"/>
<defs>
<linearGradient id="paint0_linear_2_40" x1="33.2929" y1="0.0857849" x2="33.2929" y2="160.086" gradientUnits="userSpaceOnUse">
<stop stop-color="#11AAEE"/>
<stop offset="1" stop-color="#1177EE"/>
</linearGradient>
<linearGradient id="paint1_linear_2_40" x1="105.793" y1="35.0858" x2="105.793" y2="161.086" gradientUnits="userSpaceOnUse">
<stop stop-color="#CC2292"/>
<stop offset="1" stop-color="#E61B1B"/>
</linearGradient>
</defs>
</svg>
